<?xml version="1.0" encoding="UTF-8"?>
<svg version="1.1" xmlns="http://www.w3.org/2000/svg" width="448" height="448" viewBox="0 -6 448 448" preserveAspectRatio="xMidYMid meet">
<path d="M0 0 C2.46110178 2.15859913 4.75079072 4.39182276 7.01171875 6.7578125 C7.64335937 7.37011719 8.275 7.98242188 8.92578125 8.61328125 C20.46748438 20.53631818 24.9941963 37.56706409 25.01171875 53.7578125 C24.14522575 68.06282422 19.3169752 80.16778047 11.01171875 91.7578125 C10.55152344 92.40363281 10.09132813 93.04945313 9.6171875 93.71484375 C-0.37793089 106.47518222 -16.35590774 113.30046454 -31.98828125 115.7578125 C-49.09774555 117.71612468 -66.16273851 113.21146667 -79.76953125 102.5859375 C-82.27861832 100.39426506 -84.64756184 98.12753197 -86.98828125 95.7578125 C-87.62378906 95.14421875 -88.25929687 94.530625 -88.9140625 93.8984375 C-100.85530254 81.5070842 -104.47910677 65.1373679 -104.34008789 48.47851562 C-103.93181622 32.75793731 -98.35766929 19.59219134 -87.98828125 7.7578125 C-87.45589844 7.14292969 -86.92351562 6.52804688 -86.375 5.89453125 C-64.00881322 -18.17981299 -25.54839377 -19.16964447 0 0 Z " fill="#EF4C5C" transform="translate(263.98828125,164.2421875)"/>
<path d="M0 0 C12.40686422 12.73887889 26.4375 34.16794557 26.4375 52.8125 C24.77067469 52.6684912 23.10404815 52.52218156 21.4375 52.375 C20.0453125 52.25318359 20.0453125 52.25318359 18.625 52.12890625 C16.30330482 51.89844386 13.98694884 51.61216427 11.67578125 51.29296875 C-17.90777534 47.55908776 -47.34005066 55.3393152 -72.5625 70.8125 C-73.29984375 71.42738281 -74.0371875 72.04226562 -74.796875 72.67578125 C-76.5625 73.8125 -76.5625 73.8125 -78.76171875 73.58984375 C-79.99341797 73.17412109 -79.99341797 73.17412109 -81.25 72.75 C-113.307784 62.88606646 -143.01925976 63.87981387 -175.5625 70.8125 C-174.22386697 65.95724182 -172.23841789 62.69034168 -169.125 58.75 C-168.68325439 58.19054687 -168.24150879 57.63109375 -167.78637695 57.0546875 C-166.3898302 55.29776536 -164.97844718 53.55381168 -163.5625 51.8125 C-163.12196289 51.26609863 -162.68142578 50.71969727 -162.22753906 50.15673828 C-151.37039585 36.75280794 -139.46840548 25.03345965 -125.5625 14.8125 C-123.97308594 13.64074219 -123.97308594 13.64074219 -122.3515625 12.4453125 C-114.11425677 6.56733384 -105.51551019 1.51389114 -96.5625 -3.1875 C-95.90830078 -3.53167969 -95.25410156 -3.87585938 -94.58007812 -4.23046875 C-79.00586117 -12.28769496 -62.18492785 -17.90725619 -45.125 -21.875 C-44.01825928 -22.1529541 -44.01825928 -22.1529541 -42.88916016 -22.43652344 C-26.82033659 -25.824462 -10.62359186 -10.16618721 0 0 Z " fill="#3E9FD8" transform="translate(226.5625,36.1875)"/>
<path d="M0 0 C1.65128906 -0.01836914 1.65128906 -0.01836914 3.3359375 -0.03710938 C4.90988281 -0.04000977 4.90988281 -0.04000977 6.515625 -0.04296875 C7.47243164 -0.04707764 8.42923828 -0.05118652 9.41503906 -0.05541992 C11.75 0.1875 11.75 0.1875 13.75 2.1875 C13.30269531 3.07308594 12.85539062 3.95867187 12.39453125 4.87109375 C-1.50653224 33.0550757 -5.92348774 66.15387704 3.26171875 96.5390625 C4.34355196 102.40692582 2.42475838 106.14813143 -0.8125 110.9375 C-18.27596087 138.07601942 -22.58566636 168.60045416 -23.25 200.1875 C-27.26295439 198.84984854 -28.89849133 196.1853943 -31.375 192.9375 C-31.86145996 192.30634277 -32.34791992 191.67518555 -32.84912109 191.02490234 C-64.40634332 149.75617952 -78.51160403 103.24574022 -77.32421875 51.453125 C-77.27912626 49.4690556 -77.24693487 47.48456288 -77.23828125 45.5 C-77.18013373 38.5222977 -76.62124465 32.9175602 -71.52905273 27.64794922 C-68.92343832 25.2657445 -66.14148488 23.20724553 -63.25 21.1875 C-62.6916748 20.78450684 -62.13334961 20.38151367 -61.55810547 19.96630859 C-43.00815723 6.72094758 -22.86294179 0.01357657 0 0 Z " fill="#3E9FD8" transform="translate(96.25,152.8125)"/>
<path d="M0 0 C13.94632099 2.49041446 26.7698647 8.52051925 39.22363281 15.06689453 C40.80709802 15.89867078 42.39909465 16.71415928 43.9921875 17.52734375 C51.41766473 21.41226734 58.23711857 26.07668561 65 31 C66.05574219 31.75410156 67.11148438 32.50820313 68.19921875 33.28515625 C84.02359506 44.93513451 98.95735358 59.73287571 110 76 C110.42893555 76.62229492 110.85787109 77.24458984 111.29980469 77.88574219 C114.18162046 82.089155 116.93634127 86.35453544 119.59472656 90.70263672 C120.55414931 92.27111623 121.52541858 93.83239515 122.50683594 95.38720703 C132.12379952 110.79106854 132.12379952 110.79106854 130.4375 119.375 C129.69806875 121.60886073 128.88514757 123.81976925 128 126 C127.63519531 127.08667969 127.27039063 128.17335937 126.89453125 129.29296875 C118.34206008 153.72443076 102.32227852 172.29577706 80 185 C79.09121094 185.5671875 78.18242187 186.134375 77.24609375 186.71875 C75 188 75 188 73 188 C72.82778931 186.96782349 72.82778931 186.96782349 72.65209961 185.91479492 C66.94956994 152.43228193 55.70451432 125.99867106 31 102 C29.95972656 101.28650391 29.95972656 101.28650391 28.8984375 100.55859375 C25.82316366 96.41393457 26.45155152 91.96248046 26.4375 86.9375 C25.75279926 57.3219698 17.68666874 31.65726779 2.78515625 6.16015625 C1 3 1 3 0 0 Z " fill="#3E9FD8" transform="translate(280,19)"/>
<path d="M0 0 C3.41058127 1.47484596 5.60600872 3.41147707 8.25 6 C28.28491757 24.32605695 57.19826882 36.09956479 84.36035156 37.08569336 C88.79297527 37.30714039 90.5070819 37.56999381 93.96875 40.58984375 C94.83677076 41.68695554 95.67992745 42.8041001 96.5 43.9375 C97.43491085 45.1299165 98.37112458 46.32131254 99.30859375 47.51171875 C99.76218262 48.10388184 100.21577148 48.69604492 100.68310547 49.30615234 C118.55966321 72.29976703 144.01822493 87.07845042 171 97 C166.76669519 100.41890898 162.44969596 101.75846923 157.3125 103.375 C156.3544043 103.67809082 155.39630859 103.98118164 154.40917969 104.29345703 C134.45241897 110.38724716 114.55071263 113.23314853 93.75 113.25 C92.99844635 113.25067474 92.2468927 113.25134949 91.4725647 113.25204468 C67.54721606 113.21806928 34.4496682 111.37979595 13.8984375 97.58984375 C12.21500993 95.82989674 11.17109234 94.14090318 10 92 C9.0409375 90.38931641 9.0409375 90.38931641 8.0625 88.74609375 C-6.57851407 63.39519821 -9.55669997 34.83866969 -2.1328125 6.71484375 C-1.46612762 4.45763924 -0.77034104 2.22360855 0 0 Z " fill="#3E9FD8" transform="translate(131,307)"/>
<path d="M0 0 C0.33 0 0.66 0 1 0 C2.89623324 47.14246526 -14.50374425 95.0835113 -45 131 C-45.7425 131.91136719 -46.485 132.82273437 -47.25 133.76171875 C-54.33547957 142.15178831 -54.33547957 142.15178831 -61 143 C-62.21816406 143.16886719 -63.43632812 143.33773437 -64.69140625 143.51171875 C-90.52971998 146.70781419 -118.50680762 140.50384225 -139.3828125 124.48828125 C-141.97461575 122.37705532 -144.51324528 120.23342628 -147 118 C-144.23633099 114.76894579 -140.63904993 112.95070357 -137 110.875 C-130.10416269 106.84072324 -124.02706905 102.25786315 -118 97 C-117.29488281 96.42765625 -116.58976562 95.8553125 -115.86328125 95.265625 C-107.80913689 88.61976914 -101.71378394 80.27232321 -95.875 71.6875 C-95.44380859 71.05787354 -95.01261719 70.42824707 -94.56835938 69.77954102 C-92.49587922 66.64972988 -90.78028021 63.68238018 -89.515625 60.140625 C-86.14046553 51.15284078 -86.14046553 51.15284078 -82.00732422 48.92675781 C-76.98774113 47.00921168 -71.77612089 45.87285264 -66.55078125 44.6640625 C-60.06072575 42.97446153 -54.00957889 39.92745133 -48 37 C-46.88238281 36.45601562 -45.76476562 35.91203125 -44.61328125 35.3515625 C-33.03901365 29.4038689 -22.66078214 21.91012811 -13.18359375 13.0078125 C-11 11 -11 11 -8.42578125 8.9765625 C-6.23171645 7.188806 -4.52684744 5.43832791 -2.75 3.25 C-1.85337737 2.15001966 -0.94206864 1.06131784 0 0 Z " fill="#3E9FD8" transform="translate(427,215)"/>
</svg>
